<?xml version="1.0" encoding="iso-8859-1"?><!--Generator: Adobe Illustrator 16.0.0, SVG Export Plug-In . SVG Version: 6.00 Build 0)--><!DOCTYPE svg PUBLIC "-//W3C//DTD SVG 1.1//EN" "http://www.w3.org/Graphics/SVG/1.1/DTD/svg11.dtd"><svg version="1.1" id="图层_1" xmlns="http://www.w3.org/2000/svg" xmlns:xlink="http://www.w3.org/1999/xlink" x="0px" y="0px" width="24px" height="24px" style="enable-background:new 0 0 24 24" xml:space="preserve"><path style="fill:#5C5C5C" d="M17.25,3.125C14.542,1.955,12,0,12,0S9.458,1.955,6.75,3.125C3.863,4.372,1,4.75,1,4.75
	s0.83,7.265,3.026,11.438C6.526,20.938,12,24,12,24s5.475-3.063,7.975-7.813C22.17,12.015,23,4.75,23,4.75S20.138,4.372,17.25,3.125
	z"/><g><path style="fill:#FFFFFF" d="M10.929,15.871c-0.134,0-0.263-0.054-0.358-0.15l-3.929-4.026c-0.193-0.198-0.189-0.514,0.009-0.707
		c0.198-0.192,0.514-0.188,0.707,0.009l3.5,3.585l5.729-8.491c0.154-0.229,0.468-0.288,0.693-0.135
		c0.229,0.154,0.29,0.465,0.135,0.694l-6.071,9c-0.084,0.125-0.22,0.205-0.37,0.219C10.958,15.87,10.943,15.871,10.929,15.871z"/></g></svg>