<?xml version="1.0" encoding="iso-8859-1"?><!--Generator: Adobe Illustrator 16.0.0, SVG Export Plug-In . SVG Version: 6.00 Build 0)--><!DOCTYPE svg PUBLIC "-//W3C//DTD SVG 1.1//EN" "http://www.w3.org/Graphics/SVG/1.1/DTD/svg11.dtd"><svg version="1.1" id="图层_1" xmlns="http://www.w3.org/2000/svg" xmlns:xlink="http://www.w3.org/1999/xlink" x="0px" y="0px" width="20px" height="20px" style="enable-background:new 0 0 20 20" xml:space="preserve"><path style="opacity:0.25" d="M102.332-231.63c0,2.285-5.371,4.131-11.999,4.131c-6.626,0-12.001-1.846-12.001-4.131
	c0-2.283,5.375-4.132,12.001-4.132C96.96-235.762,102.332-233.913,102.332-231.63z"/><path style="opacity:0.5" d="M97.361-231.63c0,1.273-3.146,2.301-7.028,2.301c-3.879,0-7.029-1.027-7.029-2.301
	c0-1.271,3.15-2.3,7.029-2.3C94.214-233.93,97.361-232.901,97.361-231.63z"/><path style="fill:#2D7AE4" d="M90.333-283.499c-11.048,0-20,8.956-20,20c0,6.899,4.085,13.525,8.816,17.865
	c4.78,4.385,9.341,8.779,11.184,14.041c1.844-5.262,6.402-9.656,11.186-14.041c4.73-4.34,8.814-10.966,8.814-17.865
	C110.333-274.543,101.378-283.499,90.333-283.499z"/><g><circle style="fill:none;stroke:#2D7AE4;stroke-width:2;stroke-miterlimit:10" cx="-72.319" cy="-138.903" r="7"/><line style="fill:none;stroke:#2D7AE4;stroke-width:2;stroke-linecap:round;stroke-miterlimit:10" x1="-72.289" y1="-129.903" x2="-72.289" y2="-133.903"/><line style="fill:none;stroke:#2D7AE4;stroke-width:2;stroke-linecap:round;stroke-miterlimit:10" x1="-72.289" y1="-143.903" x2="-72.289" y2="-147.903"/><circle style="fill:#2D7AE4" cx="-72.319" cy="-138.903" r="1"/><line style="fill:none;stroke:#2D7AE4;stroke-width:2;stroke-linecap:round;stroke-miterlimit:10" x1="-63.29" y1="-138.903" x2="-67.29" y2="-138.903"/><line style="fill:none;stroke:#2D7AE4;stroke-width:2;stroke-linecap:round;stroke-miterlimit:10" x1="-77.29" y1="-138.903" x2="-81.29" y2="-138.903"/></g><line style="fill:none;stroke:#202020;stroke-width:2;stroke-linecap:round;stroke-miterlimit:10" x1="-79.289" y1="-67.458" x2="-65.289" y2="-53.458"/><line style="fill:none;stroke:#202020;stroke-width:2;stroke-linecap:round;stroke-miterlimit:10" x1="-79.289" y1="-53.458" x2="-65.289" y2="-67.458"/><line style="fill:none;stroke:#5C5C5C;stroke-width:2;stroke-linecap:round;stroke-miterlimit:10" x1="-79.289" y1="-115.166" x2="-65.289" y2="-115.166"/><line style="fill:none;stroke:#999999;stroke-width:2;stroke-linecap:round;stroke-miterlimit:10" x1="-56.75" y1="-115.499" x2="-42.75" y2="-115.499"/><line style="fill:none;stroke:#5C5C5C;stroke-width:2;stroke-linecap:round;stroke-miterlimit:10" x1="-72.289" y1="-108.166" x2="-72.289" y2="-122.166"/><line style="fill:none;stroke:#5C5C5C;stroke-width:2;stroke-linecap:round;stroke-miterlimit:10" x1="-79.833" y1="-97.166" x2="-65.833" y2="-97.166"/><line style="fill:none;stroke:#999999;stroke-width:2;stroke-linecap:round;stroke-miterlimit:10" x1="-57.167" y1="-97.666" x2="-43.167" y2="-97.666"/><line style="fill:none;stroke:#999999;stroke-width:2;stroke-linecap:round;stroke-miterlimit:10" x1="-49.75" y1="-108.499" x2="-49.75" y2="-122.499"/><line style="fill:none;stroke:#5C5C5C;stroke-width:2;stroke-linecap:round;stroke-miterlimit:10" x1="-43.167" y1="-71.619" x2="-51.167" y2="-78.619"/><line style="fill:none;stroke:#5C5C5C;stroke-width:2;stroke-linecap:round;stroke-miterlimit:10" x1="-43.167" y1="-71.619" x2="-51.167" y2="-64.619"/><line style="fill:none;stroke:#FFFFFF;stroke-linecap:round;stroke-miterlimit:10" x1="-45.738" y1="-49.711" x2="-48.595" y2="-52.211"/><line style="fill:none;stroke:#FFFFFF;stroke-linecap:round;stroke-miterlimit:10" x1="-45.738" y1="-49.711" x2="-48.595" y2="-47.211"/><g><path style="opacity:0.25" d="M374.045-90.22c0,2.611-6.139,4.721-13.712,4.721s-13.717-2.109-13.717-4.721
		c0-2.609,6.144-4.723,13.717-4.723S374.045-92.829,374.045-90.22z"/><path style="opacity:0.5" d="M368.365-90.22c0,1.455-3.596,2.629-8.031,2.629c-4.433,0-8.033-1.174-8.033-2.629
		c0-1.453,3.601-2.629,8.033-2.629C364.769-92.849,368.365-91.673,368.365-90.22z"/><path style="fill:#3AC12B" d="M360.333-149.499c-12.626,0-22.857,10.235-22.857,22.857c0,7.885,4.669,15.458,10.076,20.417
		c5.462,5.012,10.677,10.033,12.781,16.047c2.107-6.014,7.317-11.035,12.783-16.047c5.406-4.96,10.074-12.532,10.074-20.417
		C383.191-139.264,372.957-149.499,360.333-149.499z"/><g><path style="fill:#FFFFFF" d="M356.651-118.871c1.258,0.434,2.834,0.548,4.777,0.548c1.396,0.023,7.911,0.023,9.579-0.045
			c-0.319,0.48-0.685,1.44-0.822,2.103h-8.733c-4.55,0-7.248-0.663-8.962-3.498c-0.274,1.646-0.663,3.109-1.234,4.297
			c-0.389-0.273-1.304-0.73-1.783-0.959c1.234-2.287,1.463-5.967,1.532-9.946l1.988,0.16c-0.023,1.051-0.068,2.058-0.137,3.041
			c0.456,1.417,1.051,2.446,1.829,3.177v-7.979h-4.664v-1.874h4.183v-2.538h-3.589v-1.875h3.589v-2.378h2.035v2.378h3.521v1.875
			h-3.521v2.538h4.116v1.874h-3.704v2.995h3.475v1.852h-3.475V-118.871z M367.488-133.823h-6.379v-1.875h8.413v8.527h-2.034v-0.571
			h-4.115v5.35c0,0.777,0.159,0.891,1.165,0.891h3.225c0.914,0,1.073-0.434,1.165-3.086c0.458,0.342,1.326,0.686,1.897,0.823
			c-0.251,3.292-0.845,4.184-2.881,4.184h-3.657c-2.286,0-2.972-0.594-2.972-2.812v-7.225h6.173V-133.823z"/></g></g><g><path style="opacity:0.25" d="M318.379-90.22c0,2.611-6.139,4.721-13.712,4.721s-13.717-2.109-13.717-4.721
		c0-2.609,6.144-4.723,13.717-4.723S318.379-92.829,318.379-90.22z"/><path style="opacity:0.5" d="M312.699-90.22c0,1.455-3.596,2.629-8.031,2.629c-4.433,0-8.033-1.174-8.033-2.629
		c0-1.453,3.601-2.629,8.033-2.629C309.103-92.849,312.699-91.673,312.699-90.22z"/><path style="fill:#E24040" d="M304.667-149.499c-12.626,0-22.857,10.235-22.857,22.857c0,7.885,4.669,15.458,10.076,20.417
		c5.462,5.012,10.677,10.033,12.781,16.047c2.107-6.014,7.317-11.035,12.783-16.047c5.406-4.96,10.074-12.532,10.074-20.417
		C327.525-139.264,317.291-149.499,304.667-149.499z"/><g><path style="fill:#FFFFFF" d="M314.067-133.708c-0.868,2.081-2.172,3.91-3.681,5.464c1.555,1.211,3.384,2.264,5.259,2.881
			c-0.479,0.411-1.097,1.234-1.417,1.76c-1.921-0.754-3.727-1.897-5.351-3.314c-1.736,1.44-3.681,2.537-5.624,3.314
			c-0.229-0.48-0.868-1.349-1.326-1.714c1.943-0.686,3.864-1.715,5.511-2.995c-0.778-0.823-1.464-1.715-2.081-2.652
			c-0.641,0.731-1.349,1.44-2.149,2.081c-0.274-0.366-0.73-0.892-1.188-1.212c-1.28,2.058-2.789,4.116-4.32,5.853l4.252-0.594
			c-0.023,0.572,0.022,1.372,0.068,1.83c-5.739,0.914-6.562,1.097-7.133,1.395c-0.092-0.412-0.412-1.395-0.641-1.921
			c0.526-0.114,1.053-0.617,1.761-1.44c0.389-0.411,1.189-1.395,2.081-2.675c-2.446,0.275-3.019,0.412-3.36,0.549
			c-0.115-0.434-0.436-1.44-0.687-1.966c0.434-0.115,0.822-0.64,1.325-1.395c0.504-0.709,2.104-3.566,2.996-6.265l2.057,0.846
			c-0.983,2.31-2.309,4.733-3.589,6.63l2.469-0.206c0.48-0.777,0.983-1.6,1.371-2.423l1.646,1.028
			c2.013-1.76,3.407-3.955,4.162-5.807l2.218,0.366c-0.299,0.617-0.596,1.28-0.961,1.897h4.641l0.365-0.069L314.067-133.708z
			 M294.154-118.985c2.082-0.32,5.235-0.938,8.254-1.486l0.16,1.852c-2.835,0.617-5.807,1.211-8.07,1.668L294.154-118.985z
			 M304.854-120.814c3.041,0.777,6.744,2.263,8.848,3.384l-1.235,1.668c-2.057-1.211-5.783-2.721-8.824-3.543L304.854-120.814z
			 M307.346-124.723c1.668,0.617,3.727,1.646,4.847,2.423l-1.235,1.531c-1.097-0.823-3.154-1.943-4.823-2.583L307.346-124.723z
			 M308.877-129.57c0.915-0.891,1.715-1.897,2.354-2.972l-4.664,0.023C307.163-131.491,307.963-130.484,308.877-129.57z"/></g></g><circle style="fill:#F29816" cx="10" cy="-117.499" r="10"/><line style="fill:none;stroke:#FFFFFF;stroke-width:2;stroke-linecap:round;stroke-miterlimit:10" x1="10" y1="-115.499" x2="10" y2="-123.499"/><circle style="fill:#FFFFFF" cx="10" cy="-111.499" r="1"/><path style="opacity:0.25" d="M183.711-90.22c0,2.611-6.139,4.721-13.712,4.721s-13.717-2.109-13.717-4.721
	c0-2.609,6.144-4.723,13.717-4.723S183.711-92.829,183.711-90.22z"/><path style="opacity:0.5" d="M178.031-90.22c0,1.455-3.596,2.629-8.031,2.629c-4.433,0-8.033-1.174-8.033-2.629
	c0-1.453,3.601-2.629,8.033-2.629C174.435-92.849,178.031-91.673,178.031-90.22z"/><path style="fill:#2D7AE4" d="M170-149.499c-12.626,0-22.857,10.235-22.857,22.857c0,7.885,4.669,15.458,10.076,20.417
	c5.462,5.012,10.677,10.033,12.781,16.047c2.107-6.014,7.317-11.035,12.783-16.047c5.406-4.96,10.074-12.532,10.074-20.417
	C192.857-139.264,182.623-149.499,170-149.499z"/><circle style="fill:#FFFFFF" cx="169.997" cy="-126.71" r="17.169"/><g><path style="fill:#2D7AE4" d="M181.642-131.803h-2.351c-0.112,0-0.224,0-0.337,0.112l-1.007-3.247
		c-0.224-1.904-1.455-2.799-3.023-2.799h-9.85c-1.678,0-2.8,1.231-3.023,2.799l-1.12,3.247c-0.111-0.112-0.224-0.112-0.336-0.112
		h-2.238c-0.335,0-0.672,0.334-0.672,0.67v0.56c0,0.336,0.337,0.67,0.672,0.67l0.896,0.113c-0.337,0.56-0.446,1.233-0.446,2.016
		l-0.338,3.807v5.148c0,0.673,0.561,1.231,1.119,1.231h1.792c0.672,0,1.12-0.558,1.12-1.231v-1.455h15v1.455
		c0,0.673,0.562,1.231,1.12,1.231h1.792c0.672,0,1.119-0.558,1.119-1.231v-5.148l-0.336-3.807c0-0.783-0.111-1.343-0.448-1.904
		l0.896-0.225c0.335,0,0.672-0.334,0.672-0.67v-0.56C182.314-131.469,181.977-131.803,181.642-131.803L181.642-131.803z
		 M162.724-132.476l0.782-2.127c0.112-0.446,0.337-0.559,0.561-0.896h11.979c0.223,0.337,0.447,0.449,0.447,0.786l0.782,2.125
		l0.336,1.231c-0.111,0.896-1.009,1.567-1.9,1.567h-11.308c-0.784,0-1.791-0.671-1.903-1.567L162.724-132.476z M163.282-122.4
		c-1.007,0-1.789-0.784-1.789-1.791c0-1.009,0.782-1.792,1.789-1.792s1.793,0.783,1.793,1.792
		C165.075-123.296,164.289-122.4,163.282-122.4L163.282-122.4z M176.717-122.4c-1.007,0-1.793-0.784-1.793-1.791
		c0-1.009,0.786-1.792,1.793-1.792s1.789,0.783,1.789,1.792C178.506-123.296,177.724-122.4,176.717-122.4L176.717-122.4z
		 M176.717-122.4"/></g><g><path style="fill:#E24040" d="M25.127-92.714h-3.054c-0.146,0-0.29,0-0.438,0.146l-1.308-4.218
		c-0.291-2.474-1.891-3.637-3.928-3.637H3.601c-2.18,0-3.638,1.6-3.928,3.637l-1.456,4.218c-0.145-0.146-0.29-0.146-0.436-0.146
		h-2.908C-5.562-92.714-6-92.279-6-91.843v0.728c0,0.437,0.438,0.872,0.873,0.872l1.164,0.146c-0.438,0.728-0.58,1.603-0.58,2.619
		l-0.439,4.946v6.688c0,0.874,0.729,1.601,1.454,1.601H-1.2c0.873,0,1.456-0.727,1.456-1.601v-1.891h19.489v1.891
		c0,0.874,0.73,1.601,1.456,1.601h2.328c0.873,0,1.454-0.727,1.454-1.601v-6.688l-0.437-4.946c0-1.017-0.145-1.745-0.583-2.474
		l1.164-0.291c0.435,0,0.873-0.436,0.873-0.872v-0.728C26-92.279,25.562-92.714,25.127-92.714L25.127-92.714z M0.547-93.588
		l1.016-2.765c0.146-0.58,0.438-0.726,0.728-1.164h15.564c0.289,0.438,0.581,0.584,0.581,1.021l1.016,2.761l0.437,1.601
		c-0.145,1.164-1.311,2.036-2.469,2.036H2.729c-1.019,0-2.327-0.872-2.473-2.036L0.547-93.588z M1.271-80.496
		c-1.308,0-2.324-1.02-2.324-2.327c0-1.311,1.016-2.327,2.324-2.327c1.309,0,2.33,1.017,2.33,2.327
		C3.601-81.661,2.58-80.496,1.271-80.496L1.271-80.496z M18.729-80.496c-1.309,0-2.33-1.02-2.33-2.327
		c0-1.311,1.021-2.327,2.33-2.327c1.308,0,2.324,1.017,2.324,2.327C21.053-81.661,20.037-80.496,18.729-80.496L18.729-80.496z
		 M18.729-80.496"/></g><path style="opacity:0.25" d="M253.378-90.22c0,2.611-6.139,4.721-13.712,4.721s-13.717-2.109-13.717-4.721
	c0-2.609,6.144-4.723,13.717-4.723S253.378-92.829,253.378-90.22z"/><path style="opacity:0.5" d="M247.698-90.22c0,1.455-3.596,2.629-8.031,2.629c-4.433,0-8.033-1.174-8.033-2.629
	c0-1.453,3.601-2.629,8.033-2.629C244.102-92.849,247.698-91.673,247.698-90.22z"/><path style="fill:#2D7AE4" d="M239.667-149.499c-12.626,0-22.857,10.235-22.857,22.857c0,7.885,4.669,15.458,10.076,20.417
	c5.462,5.012,10.677,10.033,12.781,16.047c2.107-6.014,7.317-11.035,12.783-16.047c5.406-4.96,10.074-12.532,10.074-20.417
	C262.524-139.264,252.29-149.499,239.667-149.499z"/><circle style="fill:#FFFFFF" cx="239.664" cy="-126.71" r="17.169"/><g><g><path style="fill:#2D7AE4" d="M240.032-132.693c-0.498,0-0.967-0.098-1.409-0.291c-0.442-0.195-0.828-0.455-1.154-0.781
			c-0.326-0.327-0.586-0.71-0.78-1.153c-0.194-0.443-0.292-0.913-0.292-1.41c0-0.498,0.098-0.967,0.292-1.41
			c0.194-0.443,0.454-0.827,0.78-1.153s0.712-0.586,1.154-0.781c0.442-0.193,0.911-0.291,1.409-0.291
			c0.496,0,0.968,0.098,1.41,0.291c0.443,0.195,0.827,0.455,1.153,0.781s0.584,0.71,0.77,1.153c0.187,0.443,0.279,0.913,0.279,1.41
			c0,0.497-0.093,0.967-0.279,1.41c-0.186,0.442-0.443,0.826-0.77,1.153c-0.326,0.326-0.71,0.586-1.153,0.781
			C241-132.791,240.528-132.693,240.032-132.693L240.032-132.693z M245.206-129.431c0.42,0.311,0.766,0.672,1.037,1.084
			c0.271,0.411,0.408,0.827,0.408,1.247v2.308c0,0.264-0.151,0.466-0.455,0.605c-0.303,0.14-0.637,0.21-1.001,0.21
			c-0.366,0-0.7-0.066-1.004-0.198c-0.303-0.132-0.454-0.346-0.454-0.641v-0.979c0-0.233-0.069-0.408-0.209-0.524
			c-0.141-0.117-0.28-0.214-0.419-0.292c-0.155-0.078-0.334-0.043-0.536,0.105c-0.202,0.147-0.304,0.399-0.304,0.757v6.153
			c0,0.373,0.124,0.714,0.372,1.025c0.249,0.31,0.554,0.598,0.91,0.861c0.31,0.218,0.575,0.436,0.792,0.652l0.77,0.771
			c0.093,0.092,0.127,0.236,0.104,0.432c-0.021,0.192-0.089,0.398-0.197,0.617c-0.108,0.216-0.244,0.434-0.407,0.652
			c-0.164,0.218-0.346,0.387-0.549,0.511c-0.202,0.124-0.407,0.188-0.616,0.188c-0.21,0-0.408-0.104-0.596-0.305
			c-0.278-0.294-0.504-0.529-0.675-0.709c-0.171-0.179-0.322-0.338-0.454-0.48c-0.134-0.137-0.269-0.27-0.408-0.394
			c-0.141-0.124-0.312-0.297-0.514-0.513c-0.404-0.404-0.749-0.92-1.035-1.551c-0.288-0.629-0.434-1.254-0.434-1.875v-1.888
			c-0.186,0.234-0.344,0.42-0.477,0.56c-0.133,0.14-0.283,0.373-0.455,0.699c-0.061,0.125-0.124,0.288-0.186,0.49
			c-0.063,0.202-0.119,0.412-0.175,0.63c-0.055,0.216-0.098,0.434-0.129,0.652c-0.031,0.217-0.047,0.404-0.047,0.559v1.934
			c0,0.293-0.15,0.517-0.454,0.664c-0.301,0.148-0.637,0.218-1.001,0.211c-0.366-0.01-0.7-0.095-1.002-0.258
			c-0.304-0.163-0.454-0.408-0.454-0.734v-1.7c0-0.605,0.092-1.142,0.278-1.608c0.187-0.467,0.396-0.963,0.63-1.491
			c0.312-0.715,0.539-1.29,0.688-1.726c0.147-0.435,0.26-0.737,0.337-0.908c0.156-0.358,0.234-0.676,0.234-0.956v-0.746
			c-0.171,0.109-0.315,0.21-0.432,0.303c-0.117,0.094-0.276,0.265-0.477,0.513c-0.202,0.233-0.41,0.385-0.618,0.455
			c-0.211,0.069-0.541,0.104-0.991,0.104h-1.515c-0.373,0-0.648-0.151-0.827-0.454s-0.265-0.633-0.257-0.991
			c0.008-0.357,0.105-0.687,0.291-0.99c0.187-0.303,0.459-0.454,0.816-0.454h1.398c0.187,0,0.337-0.023,0.454-0.069
			c0.116-0.047,0.226-0.117,0.326-0.21c0.102-0.093,0.21-0.202,0.325-0.326c0.117-0.125,0.262-0.265,0.434-0.42
			c0.217-0.187,0.438-0.462,0.663-0.828c0.226-0.365,0.439-0.734,0.642-1.106c0.23-0.436,0.457-0.901,0.674-1.398
			c0.327,0.016,0.631,0.031,0.91,0.046c0.247,0.016,0.502,0.028,0.758,0.035c0.255,0.007,0.47,0.012,0.641,0.012
			c0.17,0,0.365-0.005,0.582-0.012s0.428-0.02,0.629-0.035c0.232-0.015,0.474-0.031,0.723-0.046
			c0.419,0.265,0.822,0.505,1.212,0.723c0.326,0.202,0.653,0.396,0.979,0.583C244.786-129.711,245.035-129.555,245.206-129.431
			L245.206-129.431z M245.206-129.431"/></g></g><g><g><path style="fill:#E24040" d="M-74.292-26.906c-0.685,0-1.335-0.134-1.946-0.401c-0.612-0.268-1.142-0.628-1.592-1.078
			c-0.45-0.452-0.806-0.98-1.062-1.593c-0.258-0.611-0.386-1.259-0.386-1.946c0-0.687,0.128-1.335,0.386-1.947
			c0.256-0.611,0.612-1.14,1.062-1.591c0.45-0.45,0.98-0.811,1.592-1.078c0.611-0.268,1.262-0.401,1.946-0.401
			c0.688,0,1.335,0.134,1.946,0.401c0.61,0.268,1.143,0.628,1.593,1.078c0.45,0.451,0.81,0.979,1.078,1.591
			c0.268,0.612,0.402,1.261,0.402,1.947c0,0.688-0.135,1.335-0.402,1.946c-0.269,0.612-0.628,1.141-1.078,1.593
			c-0.45,0.45-0.982,0.811-1.593,1.078C-72.958-27.04-73.604-26.906-74.292-26.906L-74.292-26.906z M-81.435-22.402
			c0.236-0.172,0.58-0.387,1.029-0.644c0.451-0.256,0.902-0.526,1.353-0.804c0.538-0.3,1.095-0.632,1.673-0.998
			c0.344,0.022,0.677,0.044,0.998,0.065c0.277,0.021,0.568,0.038,0.868,0.048s0.569,0.017,0.803,0.017
			c0.236,0,0.533-0.007,0.884-0.017c0.354-0.01,0.705-0.026,1.047-0.048c0.386-0.021,0.805-0.043,1.256-0.065
			c0.3,0.688,0.612,1.329,0.931,1.932c0.279,0.514,0.574,1.023,0.886,1.527c0.312,0.505,0.616,0.885,0.916,1.142
			c0.237,0.216,0.437,0.408,0.598,0.58c0.159,0.171,0.309,0.32,0.449,0.45c0.139,0.13,0.29,0.225,0.45,0.291
			c0.162,0.062,0.369,0.095,0.627,0.095h1.931c0.494,0,0.869,0.209,1.128,0.628c0.256,0.418,0.39,0.874,0.4,1.367
			c0.012,0.493-0.107,0.949-0.354,1.366c-0.247,0.419-0.627,0.629-1.143,0.629h-2.091c-0.622,0-1.077-0.049-1.369-0.146
			c-0.286-0.098-0.573-0.306-0.853-0.628c-0.276-0.343-0.496-0.578-0.657-0.707s-0.36-0.269-0.597-0.418v1.029
			c0,0.387,0.108,0.826,0.324,1.319c0.106,0.233,0.261,0.652,0.464,1.253c0.206,0.602,0.521,1.395,0.949,2.381
			c0.322,0.729,0.612,1.416,0.87,2.061c0.258,0.644,0.384,1.383,0.384,2.219v2.348c0,0.449-0.208,0.788-0.626,1.014
			c-0.417,0.225-0.878,0.343-1.384,0.355c-0.503,0.01-0.967-0.086-1.382-0.291c-0.42-0.203-0.627-0.512-0.627-0.916v-2.67
			c0-0.214-0.021-0.474-0.065-0.772c-0.042-0.301-0.102-0.601-0.178-0.9c-0.077-0.3-0.154-0.591-0.24-0.868
			c-0.086-0.279-0.173-0.504-0.256-0.677c-0.237-0.45-0.445-0.771-0.629-0.966c-0.184-0.191-0.402-0.448-0.658-0.771v2.605
			c0,0.858-0.201,1.721-0.599,2.59c-0.395,0.869-0.871,1.584-1.429,2.141c-0.279,0.298-0.515,0.537-0.709,0.707
			c-0.193,0.172-0.379,0.355-0.563,0.544c-0.183,0.197-0.391,0.417-0.627,0.664c-0.236,0.248-0.548,0.572-0.932,0.979
			c-0.259,0.277-0.533,0.421-0.822,0.421c-0.289,0-0.572-0.089-0.851-0.261c-0.281-0.171-0.531-0.404-0.757-0.705
			c-0.225-0.302-0.413-0.603-0.563-0.9c-0.149-0.303-0.243-0.587-0.272-0.852c-0.032-0.271,0.015-0.47,0.143-0.597l1.063-1.063
			c0.299-0.299,0.666-0.599,1.093-0.901c0.492-0.363,0.913-0.76,1.256-1.188c0.343-0.429,0.514-0.9,0.514-1.416v-8.492
			c0-0.495-0.14-0.842-0.419-1.047c-0.279-0.204-0.525-0.251-0.74-0.145c-0.192,0.106-0.385,0.242-0.579,0.403
			c-0.193,0.159-0.288,0.402-0.288,0.723v1.352c0,0.406-0.209,0.703-0.627,0.885c-0.419,0.182-0.88,0.274-1.386,0.274
			c-0.503,0-0.964-0.098-1.382-0.291c-0.419-0.192-0.628-0.472-0.628-0.835v-3.187c0-0.579,0.19-1.153,0.563-1.72
			C-82.492-21.474-82.015-21.973-81.435-22.402L-81.435-22.402z M-81.435-22.402"/></g></g><path style="opacity:0.25" d="M179.793-170.05c0,2.611-6.139,4.721-13.712,4.721s-13.717-2.109-13.717-4.721
	c0-2.609,6.144-4.723,13.717-4.723S179.793-172.659,179.793-170.05z"/><path style="opacity:0.5" d="M174.113-170.05c0,1.455-3.596,2.629-8.031,2.629c-4.433,0-8.033-1.174-8.033-2.629
	c0-1.453,3.601-2.629,8.033-2.629C170.517-172.679,174.113-171.503,174.113-170.05z"/><path style="fill:#2FAF1C" d="M166.082-229.329c-12.626,0-22.857,10.235-22.857,22.857c0,7.885,4.669,15.458,10.076,20.417
	c5.462,5.011,10.677,10.034,12.781,16.047c2.107-6.013,7.317-11.036,12.783-16.047c5.406-4.96,10.074-12.532,10.074-20.417
	C188.939-219.094,178.705-229.329,166.082-229.329z"/><circle style="fill:#FFFFFF" cx="166.079" cy="-206.541" r="17.169"/><g><path style="fill:#2FAF1C" d="M177.724-211.633h-2.351c-0.112,0-0.224,0-0.337,0.112l-1.007-3.247
		c-0.224-1.904-1.455-2.799-3.023-2.799h-9.85c-1.678,0-2.8,1.231-3.023,2.799l-1.12,3.247c-0.111-0.112-0.224-0.112-0.336-0.112
		h-2.238c-0.335,0-0.672,0.334-0.672,0.67v0.56c0,0.336,0.337,0.67,0.672,0.67l0.896,0.113c-0.337,0.56-0.446,1.233-0.446,2.016
		l-0.338,3.807v5.148c0,0.673,0.561,1.231,1.119,1.231h1.792c0.672,0,1.12-0.558,1.12-1.231v-1.455h15v1.455
		c0,0.673,0.562,1.231,1.12,1.231h1.792c0.672,0,1.119-0.558,1.119-1.231v-5.148l-0.336-3.807c0-0.783-0.111-1.343-0.448-1.904
		l0.896-0.225c0.335,0,0.672-0.334,0.672-0.67v-0.56C178.396-211.299,178.059-211.633,177.724-211.633L177.724-211.633z
		 M158.806-212.306l0.782-2.127c0.112-0.446,0.337-0.559,0.561-0.896h11.979c0.223,0.337,0.447,0.449,0.447,0.786l0.782,2.125
		l0.336,1.231c-0.111,0.896-1.009,1.567-1.9,1.567h-11.308c-0.784,0-1.791-0.671-1.903-1.567L158.806-212.306z M159.364-202.23
		c-1.007,0-1.789-0.784-1.789-1.791c0-1.009,0.782-1.792,1.789-1.792s1.793,0.783,1.793,1.792
		C161.157-203.126,160.371-202.23,159.364-202.23L159.364-202.23z M172.799-202.23c-1.007,0-1.793-0.784-1.793-1.791
		c0-1.009,0.786-1.792,1.793-1.792s1.789,0.783,1.789,1.792C174.588-203.126,173.806-202.23,172.799-202.23L172.799-202.23z
		 M172.799-202.23"/></g><path style="opacity:0.25" d="M241.379-172.389c0,2.611-6.139,4.721-13.712,4.721s-13.717-2.109-13.717-4.721
	c0-2.609,6.144-4.723,13.717-4.723S241.379-174.999,241.379-172.389z"/><path style="opacity:0.5" d="M235.699-172.389c0,1.455-3.596,2.629-8.031,2.629c-4.433,0-8.033-1.174-8.033-2.629
	c0-1.453,3.601-2.629,8.033-2.629C232.103-175.018,235.699-173.842,235.699-172.389z"/><path style="fill:#2FAF1C" d="M227.667-231.668c-12.626,0-22.857,10.235-22.857,22.857c0,7.885,4.669,15.458,10.076,20.417
	c5.462,5.011,10.677,10.034,12.781,16.047c2.107-6.013,7.317-11.036,12.783-16.047c5.406-4.96,10.074-12.532,10.074-20.417
	C250.525-221.433,240.291-231.668,227.667-231.668z"/><circle style="fill:#FFFFFF" cx="227.665" cy="-208.88" r="17.169"/><g><g><path style="fill:#2FAF1C" d="M228.033-214.863c-0.498,0-0.967-0.098-1.409-0.291c-0.442-0.195-0.828-0.455-1.154-0.781
			c-0.326-0.327-0.586-0.71-0.78-1.153c-0.194-0.443-0.292-0.913-0.292-1.41c0-0.498,0.098-0.967,0.292-1.41
			c0.194-0.443,0.454-0.827,0.78-1.153s0.712-0.586,1.154-0.781c0.442-0.193,0.911-0.291,1.409-0.291
			c0.496,0,0.968,0.098,1.41,0.291c0.443,0.195,0.827,0.455,1.153,0.781s0.584,0.71,0.77,1.153c0.187,0.443,0.279,0.913,0.279,1.41
			c0,0.497-0.093,0.967-0.279,1.41c-0.186,0.442-0.443,0.826-0.77,1.153c-0.326,0.326-0.71,0.586-1.153,0.781
			C229-214.96,228.529-214.863,228.033-214.863L228.033-214.863z M233.207-211.601c0.42,0.311,0.766,0.672,1.037,1.084
			c0.271,0.411,0.408,0.827,0.408,1.247v2.308c0,0.264-0.151,0.466-0.455,0.605c-0.303,0.14-0.637,0.21-1.001,0.21
			c-0.366,0-0.7-0.066-1.004-0.198c-0.303-0.132-0.454-0.346-0.454-0.641v-0.979c0-0.233-0.069-0.408-0.209-0.524
			c-0.141-0.117-0.28-0.214-0.419-0.292c-0.155-0.078-0.334-0.043-0.536,0.105c-0.202,0.147-0.304,0.399-0.304,0.757v6.153
			c0,0.373,0.124,0.714,0.372,1.025c0.249,0.31,0.554,0.598,0.91,0.861c0.31,0.218,0.575,0.436,0.792,0.652l0.77,0.771
			c0.093,0.092,0.127,0.237,0.104,0.433c-0.021,0.191-0.089,0.398-0.197,0.617c-0.108,0.215-0.244,0.433-0.407,0.651
			c-0.164,0.218-0.346,0.388-0.549,0.511c-0.202,0.124-0.407,0.189-0.616,0.189c-0.21,0-0.408-0.104-0.596-0.305
			c-0.278-0.295-0.504-0.531-0.675-0.711c-0.171-0.178-0.322-0.336-0.454-0.479c-0.134-0.138-0.269-0.271-0.408-0.394
			c-0.141-0.124-0.312-0.297-0.514-0.513c-0.404-0.404-0.749-0.92-1.035-1.551c-0.288-0.629-0.434-1.254-0.434-1.875v-1.888
			c-0.186,0.234-0.344,0.42-0.477,0.56c-0.133,0.14-0.283,0.373-0.455,0.699c-0.061,0.125-0.124,0.288-0.186,0.49
			c-0.063,0.202-0.119,0.412-0.175,0.63c-0.055,0.216-0.098,0.434-0.129,0.652c-0.031,0.217-0.047,0.404-0.047,0.559v1.934
			c0,0.294-0.15,0.517-0.454,0.664c-0.301,0.148-0.637,0.218-1.001,0.211c-0.366-0.011-0.7-0.095-1.002-0.258
			c-0.304-0.163-0.454-0.409-0.454-0.734v-1.7c0-0.605,0.092-1.142,0.278-1.608c0.187-0.467,0.396-0.963,0.63-1.491
			c0.312-0.715,0.539-1.29,0.688-1.726c0.147-0.435,0.26-0.737,0.337-0.908c0.156-0.358,0.234-0.676,0.234-0.956v-0.746
			c-0.171,0.109-0.315,0.21-0.432,0.303c-0.117,0.094-0.276,0.265-0.477,0.513c-0.202,0.233-0.41,0.385-0.618,0.455
			c-0.211,0.069-0.541,0.104-0.991,0.104h-1.515c-0.373,0-0.648-0.151-0.827-0.454s-0.265-0.633-0.257-0.991
			c0.008-0.357,0.105-0.687,0.291-0.99c0.187-0.303,0.459-0.454,0.816-0.454h1.398c0.187,0,0.337-0.023,0.454-0.069
			c0.116-0.047,0.226-0.117,0.326-0.21c0.102-0.093,0.21-0.202,0.325-0.326c0.117-0.125,0.262-0.265,0.434-0.42
			c0.217-0.187,0.438-0.462,0.663-0.828c0.226-0.365,0.439-0.734,0.642-1.106c0.23-0.436,0.457-0.901,0.674-1.398
			c0.327,0.016,0.631,0.031,0.91,0.046c0.247,0.016,0.502,0.028,0.758,0.035c0.255,0.007,0.47,0.012,0.641,0.012
			c0.17,0,0.365-0.005,0.582-0.012s0.428-0.02,0.629-0.035c0.232-0.015,0.474-0.031,0.723-0.046
			c0.419,0.265,0.822,0.505,1.212,0.723c0.326,0.202,0.653,0.396,0.979,0.583C232.787-211.88,233.036-211.725,233.207-211.601
			L233.207-211.601z M233.207-211.601"/></g></g><path style="opacity:0.25" d="M179.793-14.22c0,2.611-6.139,4.721-13.712,4.721s-13.717-2.109-13.717-4.721
	c0-2.609,6.144-4.723,13.717-4.723S179.793-16.829,179.793-14.22z"/><path style="opacity:0.5" d="M174.113-14.22c0,1.455-3.596,2.629-8.031,2.629c-4.433,0-8.033-1.174-8.033-2.629
	c0-1.453,3.601-2.629,8.033-2.629C170.517-16.849,174.113-15.673,174.113-14.22z"/><path style="fill:#5B5B5B" d="M166.082-73.499c-12.626,0-22.857,10.235-22.857,22.857c0,7.885,4.669,15.457,10.076,20.417
	c5.462,5.012,10.677,10.033,12.781,16.047c2.107-6.014,7.317-11.035,12.783-16.047c5.406-4.96,10.074-12.532,10.074-20.417
	C188.939-63.264,178.705-73.499,166.082-73.499z"/><circle style="fill:#FFFFFF" cx="166.079" cy="-50.711" r="17.169"/><g><path style="fill:#5B5B5B" d="M177.724-55.803h-2.351c-0.112,0-0.224,0-0.337,0.111l-1.007-3.246
		c-0.224-1.904-1.455-2.798-3.023-2.798h-9.85c-1.678,0-2.8,1.229-3.023,2.798l-1.12,3.246c-0.111-0.111-0.224-0.111-0.336-0.111
		h-2.238c-0.335,0-0.672,0.334-0.672,0.67v0.561c0,0.336,0.337,0.669,0.672,0.669l0.896,0.114c-0.337,0.561-0.446,1.232-0.446,2.016
		l-0.338,3.806v5.149c0,0.672,0.561,1.23,1.119,1.23h1.792c0.672,0,1.12-0.559,1.12-1.23v-1.455h15v1.455
		c0,0.672,0.562,1.23,1.12,1.23h1.792c0.672,0,1.119-0.559,1.119-1.23v-5.149l-0.336-3.806c0-0.783-0.111-1.344-0.448-1.904
		l0.896-0.226c0.335,0,0.672-0.333,0.672-0.669v-0.561C178.396-55.469,178.059-55.803,177.724-55.803L177.724-55.803z
		 M158.806-56.477l0.782-2.127c0.112-0.447,0.337-0.559,0.561-0.896h11.979c0.223,0.337,0.447,0.448,0.447,0.786l0.782,2.125
		l0.336,1.231c-0.111,0.896-1.009,1.567-1.9,1.567h-11.308c-0.784,0-1.791-0.672-1.903-1.567L158.806-56.477z M159.364-46.399
		c-1.007,0-1.789-0.785-1.789-1.792c0-1.009,0.782-1.791,1.789-1.791s1.793,0.782,1.793,1.791
		C161.157-47.296,160.371-46.399,159.364-46.399L159.364-46.399z M172.799-46.399c-1.007,0-1.793-0.785-1.793-1.792
		c0-1.009,0.786-1.791,1.793-1.791s1.789,0.782,1.789,1.791C174.588-47.296,173.806-46.399,172.799-46.399L172.799-46.399z
		 M172.799-46.399"/></g><path style="opacity:0.25" d="M248.364-11.22c0,2.611-6.139,4.721-13.712,4.721s-13.717-2.109-13.717-4.721
	c0-2.609,6.144-4.723,13.717-4.723S248.364-13.829,248.364-11.22z"/><path style="opacity:0.5" d="M242.683-11.22c0,1.455-3.596,2.629-8.031,2.629c-4.433,0-8.033-1.174-8.033-2.629
	c0-1.453,3.601-2.629,8.033-2.629C239.087-13.849,242.683-12.673,242.683-11.22z"/><path style="fill:#5B5B5B" d="M234.652-70.499c-12.626,0-22.857,10.235-22.857,22.857c0,7.885,4.669,15.457,10.076,20.417
	c5.462,5.012,10.677,10.033,12.781,16.047c2.107-6.014,7.317-11.035,12.783-16.047c5.406-4.96,10.074-12.532,10.074-20.417
	C257.509-60.264,247.275-70.499,234.652-70.499z"/><circle style="fill:#FFFFFF" cx="234.649" cy="-47.711" r="17.169"/><g><g><path style="fill:#5B5B5B" d="M235.017-53.693c-0.498,0-0.967-0.098-1.409-0.291c-0.442-0.195-0.828-0.454-1.154-0.781
			s-0.586-0.711-0.78-1.153s-0.292-0.913-0.292-1.41s0.098-0.967,0.292-1.41c0.194-0.442,0.454-0.827,0.78-1.152
			c0.326-0.326,0.712-0.587,1.154-0.781s0.911-0.292,1.409-0.292c0.496,0,0.968,0.098,1.41,0.292
			c0.443,0.194,0.827,0.455,1.153,0.781c0.326,0.325,0.584,0.71,0.77,1.152c0.187,0.443,0.279,0.913,0.279,1.41
			s-0.093,0.968-0.279,1.41c-0.186,0.442-0.443,0.826-0.77,1.153s-0.71,0.586-1.153,0.781
			C235.985-53.791,235.513-53.693,235.017-53.693L235.017-53.693z M240.191-50.431c0.42,0.312,0.766,0.672,1.037,1.083
			c0.271,0.411,0.408,0.827,0.408,1.247v2.307c0,0.265-0.151,0.467-0.455,0.605c-0.303,0.141-0.637,0.211-1.001,0.211
			c-0.366,0-0.7-0.066-1.004-0.198c-0.303-0.133-0.454-0.346-0.454-0.641v-0.979c0-0.232-0.069-0.408-0.209-0.524
			c-0.141-0.116-0.28-0.213-0.419-0.29c-0.155-0.078-0.334-0.044-0.536,0.104c-0.202,0.147-0.304,0.399-0.304,0.757v6.153
			c0,0.372,0.124,0.714,0.372,1.025c0.249,0.309,0.554,0.597,0.91,0.861c0.31,0.218,0.575,0.436,0.792,0.652l0.77,0.77
			c0.093,0.092,0.127,0.236,0.104,0.432c-0.021,0.192-0.089,0.398-0.197,0.617c-0.108,0.216-0.244,0.434-0.407,0.652
			c-0.164,0.218-0.346,0.387-0.549,0.511c-0.202,0.124-0.407,0.188-0.616,0.188c-0.21,0-0.408-0.104-0.596-0.305
			c-0.278-0.294-0.504-0.529-0.675-0.709c-0.171-0.179-0.322-0.338-0.454-0.48c-0.134-0.137-0.269-0.27-0.408-0.394
			c-0.141-0.124-0.312-0.297-0.514-0.513c-0.404-0.404-0.749-0.921-1.035-1.551c-0.288-0.629-0.434-1.254-0.434-1.875v-1.889
			c-0.186,0.234-0.344,0.421-0.477,0.561c-0.133,0.141-0.283,0.372-0.455,0.698c-0.061,0.125-0.124,0.288-0.186,0.49
			c-0.063,0.202-0.119,0.411-0.175,0.629c-0.055,0.217-0.098,0.435-0.129,0.653c-0.031,0.217-0.047,0.404-0.047,0.558v1.935
			c0,0.293-0.15,0.517-0.454,0.664c-0.301,0.148-0.637,0.218-1.001,0.211c-0.366-0.01-0.7-0.095-1.002-0.258
			c-0.304-0.163-0.454-0.408-0.454-0.734v-1.7c0-0.605,0.092-1.142,0.278-1.608c0.187-0.466,0.396-0.963,0.63-1.49
			c0.312-0.715,0.539-1.291,0.688-1.726c0.147-0.436,0.26-0.738,0.337-0.909c0.156-0.356,0.234-0.675,0.234-0.955v-0.745
			c-0.171,0.109-0.315,0.21-0.432,0.302c-0.117,0.094-0.276,0.265-0.477,0.513c-0.202,0.234-0.41,0.385-0.618,0.455
			c-0.211,0.069-0.541,0.105-0.991,0.105h-1.515c-0.373,0-0.648-0.152-0.827-0.454c-0.179-0.303-0.265-0.633-0.257-0.991
			c0.008-0.357,0.105-0.687,0.291-0.99c0.187-0.304,0.459-0.455,0.816-0.455h1.398c0.187,0,0.337-0.022,0.454-0.069
			c0.116-0.047,0.226-0.116,0.326-0.21c0.102-0.094,0.21-0.202,0.325-0.326c0.117-0.125,0.262-0.265,0.434-0.419
			c0.217-0.187,0.438-0.463,0.663-0.828c0.226-0.364,0.439-0.733,0.642-1.106c0.23-0.437,0.457-0.9,0.674-1.398
			c0.327,0.016,0.631,0.031,0.91,0.047c0.247,0.016,0.502,0.026,0.758,0.034c0.255,0.008,0.47,0.013,0.641,0.013
			c0.17,0,0.365-0.005,0.582-0.013s0.428-0.019,0.629-0.034c0.232-0.016,0.474-0.031,0.723-0.047
			c0.419,0.265,0.822,0.505,1.212,0.724c0.326,0.2,0.653,0.395,0.979,0.582C239.771-50.711,240.02-50.555,240.191-50.431
			L240.191-50.431z M240.191-50.431"/></g></g><circle style="fill:none;stroke:#202020;stroke-width:2;stroke-linecap:round;stroke-linejoin:round;stroke-miterlimit:10" cx="-74.43" cy="11" r="9"/><path style="fill:none;stroke:#202020;stroke-width:2;stroke-linecap:round;stroke-linejoin:round;stroke-miterlimit:10" d="
	M-71.817,11.581c0,1.442-1.17,2.612-2.613,2.612l0,0c-1.442,0-2.612-1.17-2.612-2.612V9.258c0-1.443,1.17-2.613,2.612-2.613l0,0
	c1.443,0,2.613,1.17,2.613,2.613V11.581z"/><path style="fill:none;stroke:#202020;stroke-width:2;stroke-linecap:round;stroke-linejoin:round;stroke-miterlimit:10" d="
	M-81.049,17.097c1.645-1.785,4.002-2.903,6.619-2.903c2.618,0,4.975,1.118,6.619,2.901"/><path style="fill:none;stroke:#202020;stroke-width:2;stroke-linecap:round;stroke-linejoin:round;stroke-miterlimit:10" d="
	M10.826,18.804c-0.455,0.262-1.198,0.262-1.652,0l-6.401-3.688c-0.454-0.263-0.825-0.904-0.825-1.429V6.311
	c0-0.523,0.372-1.165,0.825-1.427l6.401-3.688c0.455-0.262,1.198-0.262,1.652,0l6.4,3.688c0.455,0.262,0.826,0.903,0.826,1.427"/><line style="fill:none;stroke:#202020;stroke-width:2;stroke-linecap:round;stroke-linejoin:round;stroke-miterlimit:10" x1="2.23" y1="5.432" x2="10" y2="10"/><path style="fill:none;stroke:#202020;stroke-width:2;stroke-linecap:round;stroke-linejoin:round;stroke-miterlimit:10" d="
	M16.199,11.281c-1.548,0-2.803,1.262-2.803,2.818c0,2.436,2.803,4.9,2.803,4.9S19,16.475,19,14.1
	C19,12.543,17.746,11.281,16.199,11.281z"/><circle style="fill:#202020" cx="16.198" cy="14.108" r="0.73"/><line style="fill:none;stroke:#202020;stroke-width:2;stroke-linecap:round;stroke-linejoin:round;stroke-miterlimit:10" x1="10" y1="19" x2="10" y2="10"/><line style="fill:none;stroke:#202020;stroke-width:2;stroke-linecap:round;stroke-linejoin:round;stroke-miterlimit:10" x1="10" y1="10" x2="17.86" y2="5.593"/></svg>