<?xml version="1.0" encoding="iso-8859-1"?><!--Generator: Adobe Illustrator 16.0.0, SVG Export Plug-In . SVG Version: 6.00 Build 0)--><!DOCTYPE svg PUBLIC "-//W3C//DTD SVG 1.1//EN" "http://www.w3.org/Graphics/SVG/1.1/DTD/svg11.dtd"><svg version="1.1" id="图层_1" xmlns="http://www.w3.org/2000/svg" xmlns:xlink="http://www.w3.org/1999/xlink" x="0px" y="0px" width="24px" height="24px" style="enable-background:new 0 0 24 24" xml:space="preserve"><path style="fill:#5C5C5C" d="M-10,3.125C-12.708,1.955-15.25,0-15.25,0s-2.542,1.955-5.25,3.125
	c-2.887,1.247-5.75,1.625-5.75,1.625s0.83,7.265,3.026,11.438c2.5,4.75,7.974,7.813,7.974,7.813s5.475-3.063,7.975-7.813
	C-5.08,12.015-4.25,4.75-4.25,4.75S-7.112,4.372-10,3.125z"/><g><path style="fill:#FFFFFF" d="M-16.321,15.871c-0.134,0-0.263-0.054-0.358-0.15l-3.929-4.026
		c-0.193-0.198-0.189-0.514,0.009-0.707c0.198-0.192,0.514-0.188,0.707,0.009l3.5,3.585l5.729-8.491
		c0.154-0.229,0.468-0.288,0.693-0.135c0.229,0.154,0.29,0.465,0.135,0.694l-6.071,9c-0.084,0.125-0.22,0.205-0.37,0.219
		C-16.292,15.87-16.307,15.871-16.321,15.871z"/></g><circle style="fill:#5C5C5C" cx="12" cy="6" r="6"/><path style="fill:#5C5C5C" d="M18,14H6c-2.762,0-5,2.238-5,5v3c0,1.105,0.896,2,2,2h3h2.859h6.281H18h3c1.104,0,2-0.895,2-2v-3
	C23,16.238,20.762,14,18,14z"/></svg>